<?xml version="1.0" encoding="utf-8"?>
<svg version="1.1" xmlns:xlink="http://www.w3.org/1999/xlink" width="35px" height="33px"
  xmlns="http://www.w3.org/2000/svg">
  <g transform="matrix(1 0 0 1 -534 -903 )">
    <path
      d="M 0 7.07142857142857  L 17.5 0  L 35 7.07142857142857  L 35 9.42857142857143  L 32.6666666666667 9.42857142857143  C 32.6666666666667 9.74776785714286  32.5421006944445 10.0239955357143  32.29296875 10.2572544642857  C 32.0438368055556 10.4905133928571  31.7491319444444 10.6071428571429  31.4088541666667 11  L 3.59114583333333 11  C 3.25086805555556 10.6071428571429  2.95616319444444 10.4905133928571  2.70703125 10.2572544642857  C 2.45789930555556 10.0239955357143  2.33333333333333 9.74776785714286  2.33333333333333 9.42857142857143  L 0 9.42857142857143  L 0 7.07142857142857  Z M 5 25.9285714285714  L 5 11.7857142857143  L 10 11.7857142857143  L 10 25.9285714285714  L 12 25.9285714285714  L 12 11.7857142857143  L 17 11.7857142857143  L 17 25.9285714285714  L 18 25.9285714285714  L 18 11.7857142857143  L 23 11.7857142857143  L 23 25.9285714285714  L 25 25.9285714285714  L 25 11.7857142857143  L 30 11.7857142857143  L 30 25.9285714285714  L 31.4088541666667 25.9285714285714  C 31.7491319444444 25.9285714285714  32.0438368055556 26.0452008928571  32.29296875 26.2784598214286  C 32.5421006944445 26.51171875  32.6666666666667 26.7879464285714  32.6666666666667 27.1071428571429  L 32.6666666666667 28  L 2.33333333333333 28  L 2.33333333333333 27.1071428571429  C 2.33333333333333 26.7879464285714  2.45789930555556 26.51171875  2.70703125 26.2784598214286  C 2.95616319444444 26.0452008928571  3.25086805555556 25.9285714285714  3.59114583333333 25.9285714285714  L 5 25.9285714285714  Z M 1.2578125 29  L 33.7421875 29  C 34.0824652777778 29.4642857142857  34.3771701388889 29.5809151785714  34.6263020833333 29.8141741071429  C 34.8754340277778 30.0474330357143  35 30.3236607142857  35 30.6428571428571  L 35 33  L 0 33  L 0 30.6428571428571  C 0 30.3236607142857  0.124565972222222 30.0474330357143  0.373697916666667 29.8141741071429  C 0.622829861111111 29.5809151785714  0.917534722222222 29.4642857142857  1.2578125 29  Z "
      fill-rule="nonzero" fill="#169bd5" stroke="none" transform="matrix(1 0 0 1 534 903 )" />
  </g>
</svg>