{
    "asset" : {
        "generator" : "Khronos glTF Blender I/O v1.2.75",
        "version" : "2.0"
    },
    "scene" : 0,
    "scenes" : [
        {
            "name" : "Scene",
            "nodes" : [
                0,
                1,
                2,
                3
            ]
        }
    ],
    "nodes" : [
        {
            "name" : "Light",
            "rotation" : [
                0.16907575726509094,
                0.7558803558349609,
                -0.27217137813568115,
                0.570947527885437
            ],
            "translation" : [
                1.645993709564209,
                5.952185153961182,
                1.199565052986145
            ]
        },
        {
            "name" : "Camera",
            "rotation" : [
                0.483536034822464,
                0.33687159419059753,
                -0.20870360732078552,
                0.7804827094078064
            ],
            "translation" : [
                4.928639888763428,
                5.006632328033447,
                8.86806869506836
            ]
        },
        {
            "extras" : {},
            "mesh" : 0,
            "name" : "Curve",
            "scale" : [
                6.904689311981201,
                2.2331347465515137,
                6.904689311981201
            ],
            "translation" : [
                -0.4773261547088623,
                2.238140821456909,
                3.3823487758636475
            ]
        },
        {
            "mesh" : 1,
            "name" : "\u7acb\u65b9\u4f53",
            "scale" : [
                4.699999809265137,
                0.15000003576278687,
                4.84999942779541
            ],
            "translation" : [
                1.9930167198181152,
                0.8463752269744873,
                1.226090431213379
            ]
        }
    ],
    "animations" : [
        {
            "channels" : [
                {
                    "sampler" : 0,
                    "target" : {
                        "node" : 2,
                        "path" : "scale"
                    }
                }
            ],
            "name" : "CurveAction",
            "samplers" : [
                {
                    "input" : 8,
                    "interpolation" : "STEP",
                    "output" : 9
                }
            ]
        }
    ],
    "materials" : [
        {
            "alphaMode" : "BLEND",
            "doubleSided" : true,
            "emissiveFactor" : [
                0.35883980989456177,
                0.35883980989456177,
                0.35883980989456177
            ],
            "name" : "\u6750\u8d28.002",
            "pbrMetallicRoughness" : {
                "baseColorFactor" : [
                    1,
                    1,
                    1,
                    1
                ],
                "metallicFactor" : 0,
                "roughnessFactor" : 0
            }
        },
        {
            "doubleSided" : true,
            "emissiveFactor" : [
                0,
                0,
                0
            ],
            "name" : "\u6750\u8d28.004",
            "pbrMetallicRoughness" : {
                "baseColorTexture" : {
                    "index" : 0,
                    "texCoord" : 0
                },
                "metallicFactor" : 0,
                "roughnessFactor" : 0.5
            }
        }
    ],
    "meshes" : [
        {
            "name" : "Mesh",
            "primitives" : [
                {
                    "attributes" : {
                        "POSITION" : 0,
                        "NORMAL" : 1
                    },
                    "indices" : 2,
                    "material" : 0
                }
            ]
        },
        {
            "name" : "\u7acb\u65b9\u4f53.001",
            "primitives" : [
                {
                    "attributes" : {
                        "POSITION" : 3,
                        "NORMAL" : 4,
                        "TANGENT" : 5,
                        "TEXCOORD_0" : 6
                    },
                    "indices" : 7,
                    "material" : 1
                }
            ]
        }
    ],
    "textures" : [
        {
            "source" : 0
        }
    ],
    "images" : [
        {
            "mimeType" : "image/png",
            "name" : "\u4e09\u7ef4\u5730\u56fe",
            "uri" : "123/%E4%B8%89%E7%BB%B4%E5%9C%B0%E5%9B%BE.png"
        }
    ],
    "accessors" : [
        {
            "bufferView" : 0,
            "componentType" : 5126,
            "count" : 37350,
            "max" : [
                0.3342097997665405,
                0.02267313376069069,
                -0.09899620711803436
            ],
            "min" : [
                0.00747910188511014,
                0,
                -0.36493319272994995
            ],
            "type" : "VEC3"
        },
        {
            "bufferView" : 1,
            "componentType" : 5126,
            "count" : 37350,
            "type" : "VEC3"
        },
        {
            "bufferView" : 2,
            "componentType" : 5123,
            "count" : 73848,
            "type" : "SCALAR"
        },
        {
            "bufferView" : 3,
            "componentType" : 5126,
            "count" : 24,
            "max" : [
                1,
                1,
                1
            ],
            "min" : [
                -1,
                -1,
                -1
            ],
            "type" : "VEC3"
        },
        {
            "bufferView" : 4,
            "componentType" : 5126,
            "count" : 24,
            "type" : "VEC3"
        },
        {
            "bufferView" : 5,
            "componentType" : 5126,
            "count" : 24,
            "type" : "VEC4"
        },
        {
            "bufferView" : 6,
            "componentType" : 5126,
            "count" : 24,
            "type" : "VEC2"
        },
        {
            "bufferView" : 7,
            "componentType" : 5123,
            "count" : 36,
            "type" : "SCALAR"
        },
        {
            "bufferView" : 8,
            "componentType" : 5126,
            "count" : 1,
            "max" : [
                0.041666666666666664
            ],
            "min" : [
                0.041666666666666664
            ],
            "type" : "SCALAR"
        },
        {
            "bufferView" : 9,
            "componentType" : 5126,
            "count" : 1,
            "type" : "VEC3"
        }
    ],
    "bufferViews" : [
        {
            "buffer" : 0,
            "byteLength" : 448200,
            "byteOffset" : 0
        },
        {
            "buffer" : 0,
            "byteLength" : 448200,
            "byteOffset" : 448200
        },
        {
            "buffer" : 0,
            "byteLength" : 147696,
            "byteOffset" : 896400
        },
        {
            "buffer" : 0,
            "byteLength" : 288,
            "byteOffset" : 1044096
        },
        {
            "buffer" : 0,
            "byteLength" : 288,
            "byteOffset" : 1044384
        },
        {
            "buffer" : 0,
            "byteLength" : 384,
            "byteOffset" : 1044672
        },
        {
            "buffer" : 0,
            "byteLength" : 192,
            "byteOffset" : 1045056
        },
        {
            "buffer" : 0,
            "byteLength" : 72,
            "byteOffset" : 1045248
        },
        {
            "buffer" : 0,
            "byteLength" : 4,
            "byteOffset" : 1045320
        },
        {
            "buffer" : 0,
            "byteLength" : 12,
            "byteOffset" : 1045324
        }
    ],
    "buffers" : [
        {
            "byteLength" : 1045336,
            "uri" : "map.bin"
        }
    ]
}
