{
    "asset" : {
        "generator" : "Khronos glTF Blender I/O v1.7.33",
        "version" : "2.0"
    },
    "scene" : 0,
    "scenes" : [
        {
            "name" : "Scene",
            "nodes" : [
                0,
                2,
                3,
                4,
                5,
                6,
                7
            ]
        }
    ],
    "nodes" : [
        {
            "mesh" : 0,
            "name" : "Cube",
            "scale" : [
                0.08674934506416321,
                0.002076629549264908,
                0.11002936214208603
            ],
            "translation" : [
                0.0018311715684831142,
                -0.003985365852713585,
                0.0157339945435524
            ]
        },
        {
            "camera" : 0,
            "name" : "Camera_Orientation",
            "rotation" : [
                -0.7071067690849304,
                0,
                0,
                0.7071067690849304
            ]
        },
        {
            "children" : [
                1
            ],
            "name" : "Camera",
            "rotation" : [
                0.483536034822464,
                0.33687159419059753,
                -0.20870360732078552,
                0.7804827094078064
            ],
            "translation" : [
                7.358891487121582,
                4.958309173583984,
                6.925790786743164
            ]
        },
        {
            "mesh" : 1,
            "name" : "Cube.004",
            "scale" : [
                0.02885177917778492,
                -0.03580450266599655,
                0.03473670408129692
            ],
            "translation" : [
                -0.002491725143045187,
                0.013955294154584408,
                0.052401021122932434
            ]
        },
        {
            "mesh" : 2,
            "name" : "ElectricTower.068",
            "rotation" : [
                0,
                -0.703449010848999,
                0,
                0.7107457518577576
            ],
            "scale" : [
                0.0017081447876989841,
                0.020424572750926018,
                -0.002118525095283985
            ],
            "translation" : [
                -0.05770440399646759,
                0.0067657725885510445,
                0.0660458356142044
            ]
        },
        {
            "mesh" : 3,
            "name" : "ElectricConverter.064",
            "rotation" : [
                0,
                0.7071068286895752,
                0,
                0.7071068286895752
            ],
            "scale" : [
                0.013243292458355427,
                0.007029325235635042,
                0.011081701144576073
            ],
            "translation" : [
                -0.00016485224477946758,
                0.005656719207763672,
                -0.01656470075249672
            ]
        },
        {
            "mesh" : 4,
            "name" : "Cube.001",
            "scale" : [
                0.07746712118387222,
                0.013078929856419563,
                0.10160747915506363
            ],
            "translation" : [
                0.0018311715684831142,
                0.00035735685378313065,
                0.0157339945435524
            ]
        },
        {
            "mesh" : 5,
            "name" : "Curve.002",
            "rotation" : [
                -0.0046181222423911095,
                -0.7080555558204651,
                0.7061264514923096,
                -0.004630738403648138
            ],
            "scale" : [
                12.747804641723633,
                1.5204843282699585,
                14.039525985717773
            ],
            "translation" : [
                0.07681136578321457,
                0.0073638297617435455,
                -0.06867335736751556
            ]
        }
    ],
    "cameras" : [
        {
            "name" : "Camera",
            "perspective" : {
                "aspectRatio" : 1.7777777777777777,
                "yfov" : 0.39959652046304894,
                "zfar" : 100,
                "znear" : 0.10000000149011612
            },
            "type" : "perspective"
        }
    ],
    "materials" : [
        {
            "doubleSided" : true,
            "name" : "Material",
            "pbrMetallicRoughness" : {
                "baseColorTexture" : {
                    "index" : 0
                },
                "metallicFactor" : 0,
                "roughnessFactor" : 0.4000000059604645
            }
        },
        {
            "doubleSided" : true,
            "name" : "Material.004",
            "pbrMetallicRoughness" : {
                "baseColorFactor" : [
                    0.800000011920929,
                    0.800000011920929,
                    0.800000011920929,
                    1
                ],
                "metallicFactor" : 0,
                "roughnessFactor" : 0.4000000059604645
            }
        },
        {
            "doubleSided" : true,
            "name" : "\u6750\u8d28.350",
            "pbrMetallicRoughness" : {}
        },
        {
            "doubleSided" : true,
            "emissiveFactor" : [
                0.3842422068119049,
                0.3842422068119049,
                0.3842422068119049
            ],
            "name" : "Window.172",
            "pbrMetallicRoughness" : {
                "baseColorFactor" : [
                    0.5318906307220459,
                    0.5864707231521606,
                    0.6037606000900269,
                    1
                ],
                "metallicFactor" : 0,
                "roughnessFactor" : 0.5
            }
        },
        {
            "doubleSided" : true,
            "name" : "Material.005",
            "pbrMetallicRoughness" : {
                "baseColorFactor" : [
                    0.800000011920929,
                    0.800000011920929,
                    0.800000011920929,
                    1
                ],
                "metallicFactor" : 0,
                "roughnessFactor" : 0.4000000059604645
            }
        },
        {
            "doubleSided" : true,
            "name" : "SVGMat.003",
            "pbrMetallicRoughness" : {
                "baseColorFactor" : [
                    0,
                    0.6382719874382019,
                    0.6382719874382019,
                    1
                ],
                "metallicFactor" : 0,
                "roughnessFactor" : 0.4000000059604645
            }
        }
    ],
    "meshes" : [
        {
            "name" : "Cube",
            "primitives" : [
                {
                    "attributes" : {
                        "POSITION" : 0,
                        "NORMAL" : 1,
                        "TANGENT" : 2,
                        "TEXCOORD_0" : 3
                    },
                    "indices" : 4,
                    "material" : 0
                }
            ]
        },
        {
            "name" : "Cube.004",
            "primitives" : [
                {
                    "attributes" : {
                        "POSITION" : 5,
                        "NORMAL" : 6,
                        "TANGENT" : 7,
                        "TEXCOORD_0" : 8
                    },
                    "indices" : 4,
                    "material" : 1
                }
            ]
        },
        {
            "name" : "Cube.196",
            "primitives" : [
                {
                    "attributes" : {
                        "POSITION" : 9,
                        "NORMAL" : 10
                    },
                    "indices" : 11,
                    "material" : 2
                }
            ]
        },
        {
            "name" : "Cube.187",
            "primitives" : [
                {
                    "attributes" : {
                        "POSITION" : 12,
                        "NORMAL" : 13
                    },
                    "indices" : 14,
                    "material" : 3
                }
            ]
        },
        {
            "name" : "Cube.001",
            "primitives" : [
                {
                    "attributes" : {
                        "POSITION" : 15,
                        "NORMAL" : 16,
                        "TANGENT" : 17,
                        "TEXCOORD_0" : 18
                    },
                    "indices" : 19,
                    "material" : 4
                }
            ]
        },
        {
            "name" : "Curve.002",
            "primitives" : [
                {
                    "attributes" : {
                        "POSITION" : 20,
                        "NORMAL" : 21,
                        "TANGENT" : 22,
                        "TEXCOORD_0" : 23
                    },
                    "indices" : 24,
                    "material" : 5
                }
            ]
        }
    ],
    "textures" : [
        {
            "sampler" : 0,
            "source" : 0
        }
    ],
    "images" : [
        {
            "mimeType" : "image/png",
            "name" : "\u5730\u7816\u7eb9\u7406_png",
            "uri" : "textures/%E5%9C%B0%E7%A0%96%E7%BA%B9%E7%90%86_png.png"
        }
    ],
    "accessors" : [
        {
            "bufferView" : 0,
            "componentType" : 5126,
            "count" : 24,
            "max" : [
                1,
                1,
                1
            ],
            "min" : [
                -1,
                -1,
                -1
            ],
            "type" : "VEC3"
        },
        {
            "bufferView" : 1,
            "componentType" : 5126,
            "count" : 24,
            "type" : "VEC3"
        },
        {
            "bufferView" : 2,
            "componentType" : 5126,
            "count" : 24,
            "type" : "VEC4"
        },
        {
            "bufferView" : 3,
            "componentType" : 5126,
            "count" : 24,
            "type" : "VEC2"
        },
        {
            "bufferView" : 4,
            "componentType" : 5123,
            "count" : 36,
            "type" : "SCALAR"
        },
        {
            "bufferView" : 5,
            "componentType" : 5126,
            "count" : 24,
            "max" : [
                1,
                1,
                1
            ],
            "min" : [
                -1,
                -1,
                -1
            ],
            "type" : "VEC3"
        },
        {
            "bufferView" : 6,
            "componentType" : 5126,
            "count" : 24,
            "type" : "VEC3"
        },
        {
            "bufferView" : 7,
            "componentType" : 5126,
            "count" : 24,
            "type" : "VEC4"
        },
        {
            "bufferView" : 8,
            "componentType" : 5126,
            "count" : 24,
            "type" : "VEC2"
        },
        {
            "bufferView" : 9,
            "componentType" : 5126,
            "count" : 262,
            "max" : [
                15.75828742980957,
                2.4112915992736816,
                2.6791582107543945
            ],
            "min" : [
                -15.75828742980957,
                -0.006394470110535622,
                -2.6791582107543945
            ],
            "type" : "VEC3"
        },
        {
            "bufferView" : 10,
            "componentType" : 5126,
            "count" : 262,
            "type" : "VEC3"
        },
        {
            "bufferView" : 11,
            "componentType" : 5123,
            "count" : 300,
            "type" : "SCALAR"
        },
        {
            "bufferView" : 12,
            "componentType" : 5126,
            "count" : 1060,
            "max" : [
                1,
                2.03684139251709,
                1.583859920501709
            ],
            "min" : [
                -1,
                -0.32848700881004333,
                -1.583859920501709
            ],
            "type" : "VEC3"
        },
        {
            "bufferView" : 13,
            "componentType" : 5126,
            "count" : 1060,
            "type" : "VEC3"
        },
        {
            "bufferView" : 14,
            "componentType" : 5123,
            "count" : 1368,
            "type" : "SCALAR"
        },
        {
            "bufferView" : 15,
            "componentType" : 5126,
            "count" : 20,
            "max" : [
                1,
                1,
                1
            ],
            "min" : [
                -1,
                -1,
                -1
            ],
            "type" : "VEC3"
        },
        {
            "bufferView" : 16,
            "componentType" : 5126,
            "count" : 20,
            "type" : "VEC3"
        },
        {
            "bufferView" : 17,
            "componentType" : 5126,
            "count" : 20,
            "type" : "VEC4"
        },
        {
            "bufferView" : 18,
            "componentType" : 5126,
            "count" : 20,
            "type" : "VEC2"
        },
        {
            "bufferView" : 19,
            "componentType" : 5123,
            "count" : 30,
            "type" : "SCALAR"
        },
        {
            "bufferView" : 20,
            "componentType" : 5126,
            "count" : 5428,
            "max" : [
                0.011740688234567642,
                0.004999999888241291,
                7.450580596923828e-09
            ],
            "min" : [
                0,
                -0.004999999888241291,
                -0.0038459524512290955
            ],
            "type" : "VEC3"
        },
        {
            "bufferView" : 21,
            "componentType" : 5126,
            "count" : 5428,
            "type" : "VEC3"
        },
        {
            "bufferView" : 22,
            "componentType" : 5126,
            "count" : 5428,
            "type" : "VEC4"
        },
        {
            "bufferView" : 23,
            "componentType" : 5126,
            "count" : 5428,
            "type" : "VEC2"
        },
        {
            "bufferView" : 24,
            "componentType" : 5123,
            "count" : 7296,
            "type" : "SCALAR"
        }
    ],
    "bufferViews" : [
        {
            "buffer" : 0,
            "byteLength" : 288,
            "byteOffset" : 0
        },
        {
            "buffer" : 0,
            "byteLength" : 288,
            "byteOffset" : 288
        },
        {
            "buffer" : 0,
            "byteLength" : 384,
            "byteOffset" : 576
        },
        {
            "buffer" : 0,
            "byteLength" : 192,
            "byteOffset" : 960
        },
        {
            "buffer" : 0,
            "byteLength" : 72,
            "byteOffset" : 1152
        },
        {
            "buffer" : 0,
            "byteLength" : 288,
            "byteOffset" : 1224
        },
        {
            "buffer" : 0,
            "byteLength" : 288,
            "byteOffset" : 1512
        },
        {
            "buffer" : 0,
            "byteLength" : 384,
            "byteOffset" : 1800
        },
        {
            "buffer" : 0,
            "byteLength" : 192,
            "byteOffset" : 2184
        },
        {
            "buffer" : 0,
            "byteLength" : 3144,
            "byteOffset" : 2376
        },
        {
            "buffer" : 0,
            "byteLength" : 3144,
            "byteOffset" : 5520
        },
        {
            "buffer" : 0,
            "byteLength" : 600,
            "byteOffset" : 8664
        },
        {
            "buffer" : 0,
            "byteLength" : 12720,
            "byteOffset" : 9264
        },
        {
            "buffer" : 0,
            "byteLength" : 12720,
            "byteOffset" : 21984
        },
        {
            "buffer" : 0,
            "byteLength" : 2736,
            "byteOffset" : 34704
        },
        {
            "buffer" : 0,
            "byteLength" : 240,
            "byteOffset" : 37440
        },
        {
            "buffer" : 0,
            "byteLength" : 240,
            "byteOffset" : 37680
        },
        {
            "buffer" : 0,
            "byteLength" : 320,
            "byteOffset" : 37920
        },
        {
            "buffer" : 0,
            "byteLength" : 160,
            "byteOffset" : 38240
        },
        {
            "buffer" : 0,
            "byteLength" : 60,
            "byteOffset" : 38400
        },
        {
            "buffer" : 0,
            "byteLength" : 65136,
            "byteOffset" : 38460
        },
        {
            "buffer" : 0,
            "byteLength" : 65136,
            "byteOffset" : 103596
        },
        {
            "buffer" : 0,
            "byteLength" : 86848,
            "byteOffset" : 168732
        },
        {
            "buffer" : 0,
            "byteLength" : 43424,
            "byteOffset" : 255580
        },
        {
            "buffer" : 0,
            "byteLength" : 14592,
            "byteOffset" : 299004
        }
    ],
    "samplers" : [
        {
            "magFilter" : 9729,
            "minFilter" : 9987
        }
    ],
    "buffers" : [
        {
            "byteLength" : 313596,
            "uri" : "homeicon.bin"
        }
    ]
}
